<svg width="170" height="59" viewBox="0 0 170 59" fill="none" xmlns="http://www.w3.org/2000/svg">
<path d="M141.515 47.1218L137.393 42.7682L136.489 41.813C135.461 40.7281 133.795 40.7291 132.769 41.8155C131.743 42.9019 131.744 44.6627 132.771 45.7477L134.333 47.3966L134.339 47.4045L135.92 49.0752L139.365 52.7133L143.083 48.7776L141.515 47.1218Z" fill="#FF8686"/>
<path d="M34.95 47V19.55L23.15 40.6H20.6L8.75 19.55V47H4.25V11.5H9L21.85 34.55L34.75 11.5H39.45V47H34.95ZM49.3012 11.5L60.0512 30L70.9012 11.5H75.8012L62.3012 34.05V47H57.8012V33.95L44.3512 11.5H49.3012Z" fill="#FF8686"/>
<path d="M80.7148 47V11.5H93.0148C95.8482 11.5 98.3315 11.9667 100.465 12.9C102.632 13.8333 104.432 15.1 105.865 16.7C107.298 18.3 108.365 20.1833 109.065 22.35C109.798 24.4833 110.165 26.7667 110.165 29.2C110.165 31.9 109.765 34.35 108.965 36.55C108.165 38.7167 107.015 40.5833 105.515 42.15C104.015 43.6833 102.198 44.8833 100.065 45.75C97.9648 46.5833 95.6148 47 93.0148 47H80.7148ZM105.615 29.2C105.615 27.2 105.332 25.3667 104.765 23.7C104.232 22 103.415 20.55 102.315 19.35C101.248 18.15 99.9315 17.2167 98.3648 16.55C96.7982 15.85 95.0148 15.5 93.0148 15.5H85.2148V43H93.0148C95.0482 43 96.8482 42.65 98.4148 41.95C100.015 41.25 101.332 40.2833 102.365 39.05C103.432 37.8167 104.232 36.3667 104.765 34.7C105.332 33 105.615 31.1667 105.615 29.2ZM127.206 47.5C125.239 47.5 123.439 47.1333 121.806 46.4C120.206 45.6667 118.823 44.6833 117.656 43.45C116.523 42.2167 115.639 40.7833 115.006 39.15C114.373 37.5167 114.056 35.8 114.056 34C114.056 32.1667 114.373 30.4333 115.006 28.8C115.673 27.1667 116.573 25.7333 117.706 24.5C118.873 23.2667 120.256 22.2833 121.856 21.55C123.489 20.8167 125.273 20.45 127.206 20.45C129.139 20.45 130.923 20.8167 132.556 21.55C134.189 22.2833 135.573 23.2667 136.706 24.5C137.873 25.7333 138.773 27.1667 139.406 28.8C140.073 30.4333 140.406 32.1667 140.406 34C140.406 35.8 140.089 37.5167 139.456 39.15C138.823 40.7833 137.923 42.2167 136.756 43.45C135.589 44.6833 134.189 45.6667 132.556 46.4C130.956 47.1333 129.173 47.5 127.206 47.5ZM118.556 34.05C118.556 35.4167 118.773 36.6833 119.206 37.85C119.673 39.0167 120.289 40.0333 121.056 40.9C121.856 41.7667 122.773 42.45 123.806 42.95C124.873 43.45 126.006 43.7 127.206 43.7C128.406 43.7 129.523 43.45 130.556 42.95C131.623 42.45 132.556 41.7667 133.356 40.9C134.156 40 134.773 38.9667 135.206 37.8C135.673 36.6 135.906 35.3167 135.906 33.95C135.906 32.6167 135.673 31.3667 135.206 30.2C134.773 29 134.156 27.9667 133.356 27.1C132.556 26.2 131.623 25.5 130.556 25C129.523 24.5 128.406 24.25 127.206 24.25C126.006 24.25 124.873 24.5167 123.806 25.05C122.773 25.55 121.856 26.25 121.056 27.15C120.289 28.0167 119.673 29.05 119.206 30.25C118.773 31.4167 118.556 32.6833 118.556 34.05ZM143.988 33.9C143.988 32.0667 144.304 30.3333 144.938 28.7C145.571 27.0667 146.471 25.65 147.638 24.45C148.804 23.2167 150.188 22.25 151.788 21.55C153.421 20.8167 155.238 20.45 157.238 20.45C159.838 20.45 162.071 21.0333 163.938 22.2C165.838 23.3333 167.271 24.8667 168.238 26.8L163.938 28.15C163.271 26.9167 162.338 25.9667 161.138 25.3C159.938 24.6 158.604 24.25 157.138 24.25C155.938 24.25 154.804 24.5 153.738 25C152.671 25.4667 151.754 26.1333 150.988 27C150.221 27.8667 149.604 28.8833 149.138 30.05C148.704 31.2167 148.488 32.5 148.488 33.9C148.488 35.2667 148.721 36.55 149.188 37.75C149.654 38.95 150.271 40 151.038 40.9C151.838 41.7667 152.754 42.45 153.788 42.95C154.854 43.45 155.988 43.7 157.188 43.7C157.954 43.7 158.704 43.6 159.438 43.4C160.204 43.1667 160.888 42.8667 161.488 42.5C162.121 42.1333 162.671 41.7167 163.138 41.25C163.604 40.75 163.938 40.2167 164.138 39.65L168.438 40.95C168.038 41.9167 167.471 42.8 166.738 43.6C166.038 44.4 165.204 45.0833 164.238 45.65C163.271 46.2167 162.188 46.6667 160.988 47C159.821 47.3333 158.588 47.5 157.288 47.5C155.321 47.5 153.521 47.1333 151.888 46.4C150.254 45.6667 148.854 44.6833 147.688 43.45C146.521 42.2167 145.604 40.7833 144.938 39.15C144.304 37.4833 143.988 35.7333 143.988 33.9Z" fill="white"/>
</svg>
