<svg width="88" height="24" viewBox="0 0 88 24" fill="none" xmlns="http://www.w3.org/2000/svg">
<path d="M68.2925 21.6132L66.433 19.7548L66.025 19.347C65.5613 18.8839 64.8099 18.8844 64.3469 19.3481C63.884 19.8119 63.8844 20.5635 64.348 21.0266L65.0523 21.7305L65.055 21.7339L65.7686 22.447L67.3226 24L69 22.32L68.2925 21.6132Z" fill="#FF8686"/>
<path d="M16.776 22V8.824L11.112 18.928H9.888L4.2 8.824V22H2.04V4.96H4.32L10.488 16.024L16.68 4.96H18.936V22H16.776ZM23.6646 4.96L28.8246 13.84L34.0326 4.96H36.3846L29.9046 15.784V22H27.7446V15.736L21.2886 4.96H23.6646Z" fill="#FF8686"/>
<path d="M38.7431 22V4.96H44.6471C46.0071 4.96 47.1991 5.184 48.2231 5.632C49.2631 6.08 50.1271 6.688 50.8151 7.456C51.5031 8.224 52.0151 9.128 52.3511 10.168C52.7031 11.192 52.8791 12.288 52.8791 13.456C52.8791 14.752 52.6871 15.928 52.3031 16.984C51.9191 18.024 51.3671 18.92 50.6471 19.672C49.9271 20.408 49.0551 20.984 48.0311 21.4C47.0231 21.8 45.8951 22 44.6471 22H38.7431ZM50.6951 13.456C50.6951 12.496 50.5591 11.616 50.2871 10.816C50.0311 10 49.6391 9.304 49.1111 8.728C48.5991 8.152 47.9671 7.704 47.2151 7.384C46.4631 7.048 45.6071 6.88 44.6471 6.88H40.9031V20.08H44.6471C45.6231 20.08 46.4871 19.912 47.2391 19.576C48.0071 19.24 48.6391 18.776 49.1351 18.184C49.6471 17.592 50.0311 16.896 50.2871 16.096C50.5591 15.28 50.6951 14.4 50.6951 13.456ZM61.0588 22.24C60.1148 22.24 59.2508 22.064 58.4668 21.712C57.6988 21.36 57.0348 20.888 56.4748 20.296C55.9308 19.704 55.5068 19.016 55.2028 18.232C54.8988 17.448 54.7468 16.624 54.7468 15.76C54.7468 14.88 54.8988 14.048 55.2028 13.264C55.5228 12.48 55.9548 11.792 56.4988 11.2C57.0588 10.608 57.7228 10.136 58.4908 9.784C59.2748 9.432 60.1308 9.256 61.0588 9.256C61.9868 9.256 62.8428 9.432 63.6268 9.784C64.4108 10.136 65.0748 10.608 65.6188 11.2C66.1788 11.792 66.6108 12.48 66.9148 13.264C67.2348 14.048 67.3948 14.88 67.3948 15.76C67.3948 16.624 67.2428 17.448 66.9388 18.232C66.6348 19.016 66.2028 19.704 65.6428 20.296C65.0828 20.888 64.4108 21.36 63.6268 21.712C62.8588 22.064 62.0028 22.24 61.0588 22.24ZM56.9068 15.784C56.9068 16.44 57.0108 17.048 57.2188 17.608C57.4428 18.168 57.7388 18.656 58.1068 19.072C58.4908 19.488 58.9308 19.816 59.4268 20.056C59.9388 20.296 60.4828 20.416 61.0588 20.416C61.6348 20.416 62.1708 20.296 62.6668 20.056C63.1788 19.816 63.6268 19.488 64.0108 19.072C64.3948 18.64 64.6908 18.144 64.8988 17.584C65.1228 17.008 65.2348 16.392 65.2348 15.736C65.2348 15.096 65.1228 14.496 64.8988 13.936C64.6908 13.36 64.3948 12.864 64.0108 12.448C63.6268 12.016 63.1788 11.68 62.6668 11.44C62.1708 11.2 61.6348 11.08 61.0588 11.08C60.4828 11.08 59.9388 11.208 59.4268 11.464C58.9308 11.704 58.4908 12.04 58.1068 12.472C57.7388 12.888 57.4428 13.384 57.2188 13.96C57.0108 14.52 56.9068 15.128 56.9068 15.784ZM69.114 15.712C69.114 14.832 69.266 14 69.57 13.216C69.874 12.432 70.306 11.752 70.866 11.176C71.426 10.584 72.09 10.12 72.858 9.784C73.642 9.432 74.514 9.256 75.474 9.256C76.722 9.256 77.794 9.536 78.69 10.096C79.602 10.64 80.29 11.376 80.754 12.304L78.69 12.952C78.37 12.36 77.922 11.904 77.346 11.584C76.77 11.248 76.13 11.08 75.426 11.08C74.85 11.08 74.306 11.2 73.794 11.44C73.282 11.664 72.842 11.984 72.474 12.4C72.106 12.816 71.81 13.304 71.586 13.864C71.378 14.424 71.274 15.04 71.274 15.712C71.274 16.368 71.386 16.984 71.61 17.56C71.834 18.136 72.13 18.64 72.498 19.072C72.882 19.488 73.322 19.816 73.818 20.056C74.33 20.296 74.874 20.416 75.45 20.416C75.818 20.416 76.178 20.368 76.53 20.272C76.898 20.16 77.226 20.016 77.514 19.84C77.818 19.664 78.082 19.464 78.306 19.24C78.53 19 78.69 18.744 78.786 18.472L80.85 19.096C80.658 19.56 80.386 19.984 80.034 20.368C79.698 20.752 79.298 21.08 78.834 21.352C78.37 21.624 77.85 21.84 77.274 22C76.714 22.16 76.122 22.24 75.498 22.24C74.554 22.24 73.69 22.064 72.906 21.712C72.122 21.36 71.45 20.888 70.89 20.296C70.33 19.704 69.89 19.016 69.57 18.232C69.266 17.432 69.114 16.592 69.114 15.712Z" fill="#003367"/>
</svg>
