<svg width="21" height="18" viewBox="0 0 21 18" fill="none" xmlns="http://www.w3.org/2000/svg">
<path d="M18.9331 1.68199C17.8769 0.597364 16.4277 0 14.8521 0C13.6743 0 12.5957 0.352552 11.6461 1.04778C11.167 1.39871 10.7329 1.82805 10.3501 2.32917C9.96746 1.8282 9.53315 1.39871 9.05386 1.04778C8.10446 0.352552 7.02586 0 5.8481 0C4.27246 0 2.82307 0.597364 1.76688 1.68199C0.723307 2.75394 0.148438 4.21839 0.148438 5.80576C0.148438 7.43956 0.791489 8.9351 2.17208 10.5125C3.40712 11.9234 5.18217 13.3557 7.23772 15.0143C7.93961 15.5807 8.73522 16.2227 9.56133 16.9066C9.77957 17.0876 10.0596 17.1872 10.3501 17.1872C10.6404 17.1872 10.9206 17.0876 11.1385 16.9069C11.9646 16.2229 12.7607 15.5805 13.4629 15.0138C15.5182 13.3556 17.2932 11.9234 18.5282 10.5123C19.9088 8.9351 20.5517 7.43956 20.5517 5.80561C20.5517 4.21839 19.9769 2.75394 18.9331 1.68199Z" fill="#FF0000"/>
</svg>
