<?xml version="1.0" encoding="utf-8"?>
<!-- Generator: Adobe Illustrator 24.1.0, SVG Export Plug-In . SVG Version: 6.00 Build 0)  -->
<svg version="1.1" id="Layer_1" xmlns="http://www.w3.org/2000/svg" xmlns:xlink="http://www.w3.org/1999/xlink" x="0px" y="0px"
	 viewBox="0 0 21 18" style="enable-background:new 0 0 21 18;" xml:space="preserve">
<style type="text/css">
	.st0{fill:#FF0000;}
</style>
<path class="st0" d="M18.9,1.7C17.9,0.6,16.4,0,14.9,0c-1.2,0-2.3,0.4-3.2,1c-0.5,0.4-0.9,0.8-1.3,1.3C10,1.8,9.5,1.4,9.1,1
	C8.1,0.4,7,0,5.8,0c-1.6,0-3,0.6-4.1,1.7c-1,1.1-1.6,2.5-1.6,4.1c0,1.6,0.6,3.1,2,4.7c1.2,1.4,3,2.8,5.1,4.5
	c0.7,0.6,1.5,1.2,2.3,1.9c0.2,0.2,0.5,0.3,0.8,0.3c0.3,0,0.6-0.1,0.8-0.3c0.8-0.7,1.6-1.3,2.3-1.9c2.1-1.7,3.8-3.1,5.1-4.5
	c1.4-1.6,2-3.1,2-4.7C20.6,4.2,20,2.8,18.9,1.7z"/>
</svg>
